<svg width="64" height="55" viewBox="0 0 64 55" fill="none" xmlns="http://www.w3.org/2000/svg">
<path d="M45.5976 27.0936C46.6401 27.5791 47.8389 28.1859 47.4741 31.5667C46.3795 34.5314 44.2945 37.0627 39.03 36.872C34.8079 35.8491 30.221 34.6528 30.5859 26.2614C30.9507 21.9271 35.4855 15.911 43.1999 15.8589C54.3544 16.015 59.8275 25.8453 59.3584 33.4392C58.785 44.2578 50.115 49.8751 38.196 50.9154C31.8021 50.9154 24.3831 47.4305 20.995 42.1773C16.773 36.716 15.1398 25.4639 18.7016 18.0435C22.4719 10.1029 29.5856 5.10522 37.9875 4.93632C45.7887 4.78028 50.9143 7.71032 53.8332 9.51342L60.7136 2.85582" stroke="#568D0F" stroke-width="5.71164" stroke-linecap="round" stroke-linejoin="round"/>
<path d="M20.161 15.4428C16.034 21.861 13.272 30.2179 10.466 35.3116C8.45048 39.6807 5.70529 42.1773 2.85583 45.5061C14.1708 52.0534 31.608 52.5816 42.9393 50.2392" stroke="#568D0F" stroke-width="5.71164" stroke-linecap="round" stroke-linejoin="round"/>
</svg>
